<svg width="14" height="14" viewBox="0 0 14 14" fill="none" xmlns="http://www.w3.org/2000/svg">
<path d="M7 8.40011L1.7 13.7001C1.5 13.9001 1.26667 14.0001 1 14.0001C0.733333 14.0001 0.5 13.9001 0.3 13.7001C0.1 13.5001 0 13.2668 0 13.0001C0 12.7334 0.1 12.5001 0.3 12.3001L5.6 7.00011L0.3 1.73345C0.1 1.53345 0 1.30011 0 1.03345C0 0.766781 0.1 0.533447 0.3 0.333447C0.5 0.133447 0.733333 0.0334473 1 0.0334473C1.26667 0.0334473 1.5 0.133447 1.7 0.333447L7 5.63345L12.2667 0.333447C12.4444 0.133447 12.6722 0.0334473 12.95 0.0334473C13.2278 0.0334473 13.4667 0.133447 13.6667 0.333447C13.8667 0.533447 13.9667 0.766781 13.9667 1.03345C13.9667 1.30011 13.8667 1.53345 13.6667 1.73345L8.36667 7.00011L13.6667 12.3001C13.8667 12.5001 13.9667 12.7334 13.9667 13.0001C13.9667 13.2668 13.8667 13.5001 13.6667 13.7001C13.4667 13.9001 13.2333 14.0001 12.9667 14.0001C12.7 14.0001 12.4667 13.9001 12.2667 13.7001L7 8.40011Z" fill="white"/>
</svg>
